# File created by Blade
# Date/Time:  Tue Apr 07 20:49:23 2015
# Frame Rate: 120.000 fps
#------------------------------------------------------
:FULLY-SPECIFIED
:DEGREES
890
root 0.377145 33.983924 -7.066783 15.326464 53.517162 -90.486677
Spine -43.130541 -10.061305 28.126375
Head -25.480430 39.309841 23.442924
LeftShoulder -28.679917 39.011153 26.612592
LeftArm 81.401046 -69.410367 -82.572191
LeftForeArm 19.737436 0.000000 20.639128
LeftHand 6.643049 -0.000000 18.431205
LeftHandThumb1 -26.253704 0.000000 33.147579
RightShoulder -23.716459 -7.098866 -28.349372
RightArm -26.433508 37.279993 25.431237
RightForeArm 59.220159 -0.000000 -1.804015
RightHand 5.173015 -0.000000 13.295137
RightHandThumb1 -24.326973 -0.000000 -32.862282
LeftUpLeg -85.418021 38.631944 23.416416
LeftLeg -13.517787 -0.000000 0.000000
LeftFoot 7.698188 20.097057 -2.000589
LeftToeBase -11.506622 -0.000000 0.000000
RightUpLeg 31.200548 22.734766 -18.158636
RightLeg 65.672436 -0.000000 -0.000000
RightFoot 53.198051 12.082166 -1.160274
RightToeBase 11.929979 -0.000000 -0.000000
891
root 0.451235 33.983885 -7.099820 15.548307 53.683705 -89.793612
Spine -42.803053 -10.186438 27.793454
Head -25.747020 39.157613 23.235437
LeftShoulder -28.825604 39.191671 26.264939
LeftArm 81.528319 -69.175190 -82.916669
LeftForeArm 19.911867 -0.000000 20.865726
LeftHand 6.718234 -0.000000 18.581983
LeftHandThumb1 -26.253704 0.000000 33.147579
RightShoulder -23.761245 -7.238833 -28.166185
RightArm -26.368258 37.330233 25.835298
RightForeArm 59.440033 -0.000000 -1.978190
RightHand 5.194197 -0.000000 13.327419
RightHandThumb1 -24.326973 -0.000000 -32.862282
LeftUpLeg -84.622162 38.131844 23.813132
LeftLeg -13.736530 -0.000000 0.000000
LeftFoot 8.217032 20.414147 -1.624804
LeftToeBase -11.632221 -0.000000 0.000000
RightUpLeg 31.023092 22.690871 -18.318735
RightLeg 66.174476 -0.000000 -0.000000
RightFoot 53.097914 12.321337 -1.240090
RightToeBase 11.982212 -0.000000 -0.000000
892
root 0.531630 33.984530 -7.129564 15.727315 53.849044 -89.212869
Spine -42.543759 -10.251011 27.558705
Head -25.941301 38.983171 22.993750
LeftShoulder -28.936870 39.356911 25.970882
LeftArm 81.475534 -68.874399 -83.179807
LeftForeArm 20.142390 0.000000 21.154941
LeftHand 6.599019 -0.000000 18.700361
LeftHandThumb1 -26.253704 0.000000 33.147579
RightShoulder -23.758730 -7.301995 -28.028197
RightArm -26.395876 37.261631 26.175602
RightForeArm 59.718377 -0.000000 -2.159155
RightHand 5.329596 0.000000 13.284099
RightHandThumb1 -24.326973 -0.000000 -32.862282
LeftUpLeg -83.923085 37.689936 24.061177
LeftLeg -14.069087 -0.000000 0.000000
LeftFoot 8.685670 20.519769 -1.563711
LeftToeBase -11.848391 -0.000000 0.000000
RightUpLeg 30.766106 22.675322 -18.403560
RightLeg 66.764180 -0.000000 -0.000000
RightFoot 52.696415 12.519794 -1.201278
RightToeBase 12.402830 -0.000000 -0.000000
893
root 0.616212 33.985838 -7.161177 15.956218 54.035285 -88.668247
Spine -42.376318 -10.249558 27.344782
Head -26.081654 38.770112 22.740399
LeftShoulder -29.004064 39.501250 25.741060
LeftArm 81.445935 -68.505553 -83.512861
LeftForeArm 20.242927 -0.000000 21.457995
LeftHand 6.559849 -0.000000 18.880686
LeftHandThumb1 -26.253704 0.000000 33.147579
RightShoulder -23.765768 -7.393589 -27.870302
RightArm -26.448109 37.159950 26.477462
RightForeArm 59.975286 -0.000000 -2.406545
RightHand 5.452674 -0.000000 13.421766
RightHandThumb1 -24.326973 -0.000000 -32.862282
LeftUpLeg -83.361254 37.292959 24.134716
LeftLeg -14.471065 -0.000000 0.000000
LeftFoot 9.032625 20.437350 -1.913552
LeftToeBase -12.027400 -0.000000 0.000000
RightUpLeg 30.340053 22.535458 -18.570791
RightLeg 67.427354 -0.000000 -0.000000
RightFoot 52.390500 12.493622 -1.427668
RightToeBase 12.772304 -0.000000 -0.000000
894
root 0.702655 33.995009 -7.192611 16.138147 54.129382 -88.231471
Spine -42.193758 -10.112181 27.146605
Head -26.237514 38.550496 22.503432
LeftShoulder -29.028472 39.629904 25.528792
LeftArm 81.274717 -68.135575 -83.719607
LeftForeArm 20.226322 -0.000000 21.786875
LeftHand 6.570216 -0.000000 18.965717
LeftHandThumb1 -26.253704 0.000000 33.147579
RightShoulder -23.721018 -7.367805 -27.773065
RightArm -26.860938 37.113254 26.561188
RightForeArm 60.054573 -0.000000 -2.551274
RightHand 5.547066 -0.000000 13.596617
RightHandThumb1 -24.326973 -0.000000 -32.862282
LeftUpLeg -82.782338 37.038662 24.213505
LeftLeg -14.900282 -0.000000 0.000000
LeftFoot 9.374554 20.246508 -2.368028
LeftToeBase -12.160365 -0.000000 0.000000
RightUpLeg 29.702503 22.410517 -18.795307
RightLeg 68.300829 -0.000000 -0.000000
RightFoot 52.056119 12.330766 -1.988895
RightToeBase 12.986656 -0.000000 -0.000000
895
root 0.781566 34.010513 -7.230540 16.066061 54.131766 -87.974740
Spine -41.770844 -9.922721 26.977381
Head -26.519676 38.382073 22.227160
LeftShoulder -29.015865 39.610819 25.421393
LeftArm 80.865700 -67.733002 -83.765434
LeftForeArm 20.234064 -0.000000 22.112096
LeftHand 6.581560 -0.000000 19.070682
LeftHandThumb1 -26.253704 0.000000 33.147579
RightShoulder -23.691109 -7.321901 -27.663751
RightArm -27.267789 36.991221 26.763727
RightForeArm 60.447143 -0.000000 -2.764808
RightHand 5.715986 0.000000 13.887024
RightHandThumb1 -24.326973 -0.000000 -32.862282
LeftUpLeg -82.024942 36.871793 24.497049
LeftLeg -15.321434 -0.000000 0.000000
LeftFoot 9.700262 19.973519 -3.018993
LeftToeBase -12.335928 -0.000000 0.000000
RightUpLeg 28.988545 22.361132 -19.017172
RightLeg 69.399711 -0.000000 -0.000000
RightFoot 51.775772 11.892113 -2.773670
RightToeBase 13.112761 -0.000000 -0.000000
896
root 0.866268 34.031794 -7.262995 16.267873 54.148227 -87.526653
Spine -41.535998 -9.746233 26.657032
Head -26.672768 38.230921 22.158636
LeftShoulder -29.021666 39.726301 25.331078
LeftArm 80.899749 -67.306043 -84.235247
LeftForeArm 20.201755 -0.000000 22.473557
LeftHand 6.514361 -0.000000 19.023641
LeftHandThumb1 -26.253704 0.000000 33.147579
RightShoulder -23.613780 -7.384932 -27.509145
RightArm -27.794420 36.953692 26.998929
RightForeArm 60.686557 -0.000000 -2.975387
RightHand 5.897460 -0.000000 14.736601
RightHandThumb1 -24.326973 -0.000000 -32.862282
LeftUpLeg -81.392543 36.733142 24.591137
LeftLeg -15.736421 -0.000000 0.000000
LeftFoot 9.972306 19.677106 -3.851317
LeftToeBase -12.514603 -0.000000 0.000000
RightUpLeg 28.138146 22.226027 -19.363450
RightLeg 70.622200 -0.000000 -0.000000
RightFoot 51.497584 11.348965 -3.367479
RightToeBase 13.629345 -0.000000 -0.000000
